#Comment line ignore any data following # character 
#Hierarchical Translation and Rotation (.htr) file 
[Header]	
#Header keywords are followed by a single value 
FileType HTR		#Single word string
DataType HTRS		#Translation followed by rotation and scale data
FileVersion 1		#integer
NumSegments 84		#integer
NumFrames 2		#integer
DataFrameRate 30		#integer, data frame rate in this file
EulerRotationOrder ZYX
CalibrationUnits mm
RotationUnits Degrees
GlobalAxisofGravity Y
BoneLengthAxis Y
ScaleFactor 1.00
[SegmentNames&Hierarchy]
#CHILD	PARENT
MASTER GLOBAL
root MASTER
chest root
L_mid_tent01 root
R_mid_tent01 root
spine01 root
Bip01_Neck chest
L_humerus chest
R_humerus chest
weapon_bone chest
Bip01_Head Bip01_Neck
eye_left_bone Bip01_Head
eye_right_bone Bip01_Head
L_forearm L_humerus
L_front_hand L_forearm
L_weapon_bone L_forearm
L_front_hand01_01 L_front_hand
L_front_hand02_01 L_front_hand
L_front_hand03_01 L_front_hand
L_front_hand01_02 L_front_hand01_01
L_front_hand02_02 L_front_hand02_01
L_front_hand03_02 L_front_hand03_01
R_forearm R_humerus
R_front_hand R_forearm
R_weapon_bone R_forearm
R_front_hand01_01 R_front_hand
R_front_hand02_01 R_front_hand
R_front_hand03_01 R_front_hand
R_front_hand01_02 R_front_hand01_01
R_front_hand02_02 R_front_hand02_01
R_front_hand03_02 R_front_hand03_01
null_rope01_connect L_mid_tent01
Rope1_Seg01 null_rope01_connect
Rope1_Seg02 Rope1_Seg01
Rope1_Seg03 Rope1_Seg02
Rope1_Seg04 Rope1_Seg03
Rope1_Seg05 Rope1_Seg04
Rope1_Seg06 Rope1_Seg05
Rope1_Seg07 Rope1_Seg06
Rope1_Seg09 Rope1_Seg07
L_mid_hand01 Rope1_Seg09
L_mid_hand02 Rope1_Seg09
L_mid_hand03 Rope1_Seg09
null_rope02_connect R_mid_tent01
Rope2_Seg01 null_rope02_connect
Rope2_Seg02 Rope2_Seg01
Rope2_Seg03 Rope2_Seg02
Rope2_Seg04 Rope2_Seg03
Rope2_Seg05 Rope2_Seg04
Rope2_Seg06 Rope2_Seg05
Rope2_Seg07 Rope2_Seg06
Rope2_Seg09 Rope2_Seg07
R_mid_hand01 Rope2_Seg09
R_mid_hand02 Rope2_Seg09
R_mid_hand03 Rope2_Seg09
spine02 spine01
spine03 spine02
pelvis spine03
null_rope03_connect pelvis
null_rope04_connect pelvis
Rope3_Seg01 null_rope03_connect
Rope3_Seg02 Rope3_Seg01
Rope3_Seg03 Rope3_Seg02
Rope3_Seg04 Rope3_Seg03
Rope3_Seg05 Rope3_Seg04
Rope3_Seg06 Rope3_Seg05
Rope3_Seg07 Rope3_Seg06
Rope3_Seg08 Rope3_Seg07
Rope3_Seg09 Rope3_Seg08
R_rear_hand01 Rope3_Seg09
R_rear_hand02 Rope3_Seg09
R_rear_hand03 Rope3_Seg09
Rope4_Seg01 null_rope04_connect
Rope4_Seg02 Rope4_Seg01
Rope4_Seg03 Rope4_Seg02
Rope4_Seg04 Rope4_Seg03
Rope4_Seg05 Rope4_Seg04
Rope4_Seg06 Rope4_Seg05
Rope4_Seg07 Rope4_Seg06
Rope4_Seg08 Rope4_Seg07
Rope4_Seg09 Rope4_Seg08
L_rear_hand01 Rope4_Seg09
L_rear_hand02 Rope4_Seg09
L_rear_hand03 Rope4_Seg09
[BasePosition]
#SegmentName Tx, Ty, Tz, Rx, Ry, Rz, BoneLength
MASTER 0.000000 0.000000 0.000000 -90.000000 0.000000 0.000000 10.000000 
root 0.000000 0.000000 0.000000 0.000000 0.000000 0.000000 10.000000 
chest 0.000000 0.000000 0.000000 0.000000 0.000000 0.000000 10.000000 
L_mid_tent01 0.000000 0.000000 0.000000 0.000000 0.000000 0.000000 10.000000 
R_mid_tent01 0.000000 0.000000 0.000000 0.000000 0.000000 0.000000 10.000000 
spine01 0.000000 0.000000 0.000000 0.000000 0.000000 0.000000 10.000000 
Bip01_Neck 0.000000 0.000000 0.000000 0.000000 0.000000 0.000000 10.000000 
L_humerus 0.000000 0.000000 0.000000 0.000000 0.000000 0.000000 10.000000 
R_humerus 0.000000 0.000000 0.000000 0.000000 0.000000 0.000000 10.000000 
weapon_bone 0.000000 0.000000 0.000000 0.000000 0.000000 0.000000 10.000000 
Bip01_Head 0.000000 0.000000 0.000000 0.000000 0.000000 0.000000 10.000000 
eye_left_bone 0.000000 0.000000 0.000000 0.000000 0.000000 0.000000 10.000000 
eye_right_bone 0.000000 0.000000 0.000000 0.000000 0.000000 0.000000 10.000000 
L_forearm 0.000000 0.000000 0.000000 0.000000 0.000000 0.000000 10.000000 
L_front_hand 0.000000 0.000000 0.000000 0.000000 0.000000 0.000000 10.000000 
L_weapon_bone 0.000000 0.000000 0.000000 0.000000 0.000000 0.000000 10.000000 
L_front_hand01_01 0.000000 0.000000 0.000000 0.000000 0.000000 0.000000 10.000000 
L_front_hand02_01 0.000000 0.000000 0.000000 0.000000 0.000000 0.000000 10.000000 
L_front_hand03_01 0.000000 0.000000 0.000000 0.000000 0.000000 0.000000 10.000000 
L_front_hand01_02 0.000000 0.000000 0.000000 0.000000 0.000000 0.000000 10.000000 
L_front_hand02_02 0.000000 0.000000 0.000000 0.000000 0.000000 0.000000 10.000000 
L_front_hand03_02 0.000000 0.000000 0.000000 0.000000 0.000000 0.000000 10.000000 
R_forearm 0.000000 0.000000 0.000000 0.000000 0.000000 0.000000 10.000000 
R_front_hand 0.000000 0.000000 0.000000 0.000000 0.000000 0.000000 10.000000 
R_weapon_bone 0.000000 0.000000 0.000000 0.000000 0.000000 0.000000 10.000000 
R_front_hand01_01 0.000000 0.000000 0.000000 0.000000 0.000000 0.000000 10.000000 
R_front_hand02_01 0.000000 0.000000 0.000000 0.000000 0.000000 0.000000 10.000000 
R_front_hand03_01 0.000000 0.000000 0.000000 0.000000 0.000000 0.000000 10.000000 
R_front_hand01_02 0.000000 0.000000 0.000000 0.000000 0.000000 0.000000 10.000000 
R_front_hand02_02 0.000000 0.000000 0.000000 0.000000 0.000000 0.000000 10.000000 
R_front_hand03_02 0.000000 0.000000 0.000000 0.000000 0.000000 0.000000 10.000000 
null_rope01_connect 0.000000 0.000000 0.000000 0.000000 0.000000 0.000000 10.000000 
Rope1_Seg01 0.000000 0.000000 0.000000 0.000000 0.000000 0.000000 10.000000 
Rope1_Seg02 0.000000 0.000000 0.000000 0.000000 0.000000 0.000000 10.000000 
Rope1_Seg03 0.000000 0.000000 0.000000 0.000000 0.000000 0.000000 10.000000 
Rope1_Seg04 0.000000 0.000000 0.000000 0.000000 0.000000 0.000000 10.000000 
Rope1_Seg05 0.000000 0.000000 0.000000 0.000000 0.000000 0.000000 10.000000 
Rope1_Seg06 0.000000 0.000000 0.000000 0.000000 0.000000 0.000000 10.000000 
Rope1_Seg07 0.000000 0.000000 0.000000 0.000000 0.000000 0.000000 10.000000 
Rope1_Seg09 0.000000 0.000000 0.000000 0.000000 0.000000 0.000000 10.000000 
L_mid_hand01 0.000000 0.000000 0.000000 0.000000 0.000000 0.000000 10.000000 
L_mid_hand02 0.000000 0.000000 0.000000 0.000000 0.000000 0.000000 10.000000 
L_mid_hand03 0.000000 0.000000 0.000000 0.000000 0.000000 0.000000 10.000000 
null_rope02_connect 0.000000 0.000000 0.000000 0.000000 0.000000 0.000000 10.000000 
Rope2_Seg01 0.000000 0.000000 0.000000 0.000000 0.000000 0.000000 10.000000 
Rope2_Seg02 0.000000 0.000000 0.000000 0.000000 0.000000 0.000000 10.000000 
Rope2_Seg03 0.000000 0.000000 0.000000 0.000000 0.000000 0.000000 10.000000 
Rope2_Seg04 0.000000 0.000000 0.000000 0.000000 0.000000 0.000000 10.000000 
Rope2_Seg05 0.000000 0.000000 0.000000 0.000000 0.000000 0.000000 10.000000 
Rope2_Seg06 0.000000 0.000000 0.000000 0.000000 0.000000 0.000000 10.000000 
Rope2_Seg07 0.000000 0.000000 0.000000 0.000000 0.000000 0.000000 10.000000 
Rope2_Seg09 0.000000 0.000000 0.000000 0.000000 0.000000 0.000000 10.000000 
R_mid_hand01 0.000000 0.000000 0.000000 0.000000 0.000000 0.000000 10.000000 
R_mid_hand02 0.000000 0.000000 0.000000 0.000000 0.000000 0.000000 10.000000 
R_mid_hand03 0.000000 0.000000 0.000000 0.000000 0.000000 0.000000 10.000000 
spine02 0.000000 0.000000 0.000000 0.000000 0.000000 0.000000 10.000000 
spine03 0.000000 0.000000 0.000000 0.000000 0.000000 0.000000 10.000000 
pelvis 0.000000 0.000000 0.000000 0.000000 0.000000 0.000000 10.000000 
null_rope03_connect 0.000000 0.000000 0.000000 0.000000 0.000000 0.000000 10.000000 
null_rope04_connect 0.000000 0.000000 0.000000 0.000000 0.000000 0.000000 10.000000 
Rope3_Seg01 0.000000 0.000000 0.000000 0.000000 0.000000 0.000000 10.000000 
Rope3_Seg02 0.000000 0.000000 0.000000 0.000000 0.000000 0.000000 10.000000 
Rope3_Seg03 0.000000 0.000000 0.000000 0.000000 0.000000 0.000000 10.000000 
Rope3_Seg04 0.000000 0.000000 0.000000 0.000000 0.000000 0.000000 10.000000 
Rope3_Seg05 0.000000 0.000000 0.000000 0.000000 0.000000 0.000000 10.000000 
Rope3_Seg06 0.000000 0.000000 0.000000 0.000000 0.000000 0.000000 10.000000 
Rope3_Seg07 0.000000 0.000000 0.000000 0.000000 0.000000 0.000000 10.000000 
Rope3_Seg08 0.000000 0.000000 0.000000 0.000000 0.000000 0.000000 10.000000 
Rope3_Seg09 0.000000 0.000000 0.000000 0.000000 0.000000 0.000000 10.000000 
R_rear_hand01 0.000000 0.000000 0.000000 0.000000 0.000000 0.000000 10.000000 
R_rear_hand02 0.000000 0.000000 0.000000 0.000000 0.000000 0.000000 10.000000 
R_rear_hand03 0.000000 0.000000 0.000000 0.000000 0.000000 0.000000 10.000000 
Rope4_Seg01 0.000000 0.000000 0.000000 0.000000 0.000000 0.000000 10.000000 
Rope4_Seg02 0.000000 0.000000 0.000000 0.000000 0.000000 0.000000 10.000000 
Rope4_Seg03 0.000000 0.000000 0.000000 0.000000 0.000000 0.000000 10.000000 
Rope4_Seg04 0.000000 0.000000 0.000000 0.000000 0.000000 0.000000 10.000000 
Rope4_Seg05 0.000000 0.000000 0.000000 0.000000 0.000000 0.000000 10.000000 
Rope4_Seg06 0.000000 0.000000 0.000000 0.000000 0.000000 0.000000 10.000000 
Rope4_Seg07 0.000000 0.000000 0.000000 0.000000 0.000000 0.000000 10.000000 
Rope4_Seg08 0.000000 0.000000 0.000000 0.000000 0.000000 0.000000 10.000000 
Rope4_Seg09 0.000000 0.000000 0.000000 0.000000 0.000000 0.000000 10.000000 
L_rear_hand01 0.000000 0.000000 0.000000 0.000000 0.000000 0.000000 10.000000 
L_rear_hand02 0.000000 0.000000 0.000000 0.000000 0.000000 0.000000 10.000000 
L_rear_hand03 0.000000 0.000000 0.000000 0.000000 0.000000 0.000000 10.000000 
#Beginning of Data. Separated by tabs
#Fr	Tx	Ty	Tz	Rx	Ry	Rz	SF
[MASTER]
25 0.000000 0.000000 0.000000 0.001660 0.001660 0.001660 0.000000
26 0.000000 0.000000 0.000000 0.001660 0.001660 0.001660 0.000000
[root]
25 -16.812204 -62.656551 1491.605103 -91.432068 -27.068398 -89.330521 1493.015137
26 -16.502293 -62.822044 1499.999878 -92.288544 -27.628199 -88.966438 1501.405518
[chest]
25 -84.512650 -34.090519 0.000000 -2.487589 -1.535218 -176.316620 91.129311
26 -84.512650 -34.090519 0.000000 -2.411180 -1.251021 -179.188766 91.129311
[L_mid_tent01]
25 27.299128 22.179028 -249.918671 -9.758442 30.456688 52.613667 252.381653
26 27.299124 22.179043 -249.918686 -13.177465 27.412041 43.913303 252.381668
[R_mid_tent01]
25 23.228794 24.509907 226.238495 179.579971 -40.021580 58.601849 228.744751
26 23.228794 24.509907 226.238495 -175.795837 -36.334846 50.438267 228.744751
[spine01]
25 -0.361383 -0.195265 0.000000 0.001856 0.001437 14.516488 0.410763
26 -0.361383 -0.195265 0.000000 0.001873 0.001414 15.898602 0.410763
[Bip01_Neck]
25 165.484543 71.581718 0.000119 176.643677 -1.657967 43.431911 180.302734
26 165.484543 71.581718 0.000119 176.643677 -1.657967 43.431911 180.302734
[L_humerus]
25 -13.983130 -135.272980 -120.471481 162.408630 62.627365 -102.360115 181.680161
26 -13.983130 -135.272980 -120.471481 156.317337 70.210121 -112.010315 181.680161
[R_humerus]
25 -13.983309 -135.273102 125.287651 -172.956512 -58.621273 -91.824432 184.909012
26 -13.983309 -135.273102 125.287651 -172.382263 -66.903915 -92.554001 184.909012
[weapon_bone]
25 235.964890 -300.705902 0.000000 0.000000 -89.951546 -128.212341 382.234833
26 235.964890 -300.705902 0.000000 0.000000 -89.951546 -128.212341 382.234833
[Bip01_Head]
25 213.444275 185.715546 11.776957 4.962490 2.797846 -43.898743 283.173828
26 213.444244 185.715485 11.776955 4.962490 2.797846 -43.898743 283.173767
[eye_left_bone]
25 -24.626970 125.451866 -64.772606 0.000000 -90.000000 -99.840431 143.318359
26 -24.626970 125.451866 -64.772606 0.000000 -90.000000 -99.840431 143.318359
[eye_right_bone]
25 -24.626970 125.451866 64.327362 0.000000 -89.965736 80.156380 143.117676
26 -24.626970 125.451866 64.327362 0.000000 -89.965736 80.156380 143.117676
[L_forearm]
25 322.776093 0.000000 -0.000119 0.000188 -0.002340 -99.208290 322.776093
26 322.776093 0.000000 -0.000119 0.000228 -0.002336 -101.161873 322.776093
[L_front_hand]
25 241.149185 -0.042021 -3.300071 -178.667953 -1.835447 -27.422350 241.171753
26 241.149185 -0.042021 -3.300071 -178.667953 -1.835447 -27.422350 241.171753
[L_weapon_bone]
25 156.183838 0.000000 0.000000 0.000014 0.000007 0.000001 156.183838
26 156.183838 0.000000 0.000000 0.000014 0.000007 0.000001 156.183838
[L_front_hand01_01]
25 86.095154 20.947098 -0.655860 -0.366594 -0.477154 75.385574 88.609184
26 86.095154 20.947098 -0.655860 -0.366594 -0.477154 75.385574 88.609184
[L_front_hand02_01]
25 86.935165 -11.437475 24.513514 154.399796 -59.883835 -61.369587 91.046425
26 86.935165 -11.437475 24.513514 154.399796 -59.883835 -61.369587 91.046425
[L_front_hand03_01]
25 86.637497 -14.123976 -20.424902 -153.913849 58.118130 -62.702866 90.126129
26 86.637497 -14.123976 -20.424902 -153.913849 58.118130 -62.702866 90.126129
[L_front_hand01_02]
25 71.020905 -0.000179 0.000030 0.000334 -0.002323 -106.379684 71.020905
26 71.020905 -0.000179 0.000030 0.000334 -0.002323 -106.379684 71.020905
[L_front_hand02_02]
25 71.020927 -0.000119 0.000060 0.000334 -0.002323 -106.379684 71.020927
26 71.020927 -0.000119 0.000060 0.000334 -0.002323 -106.379684 71.020927
[L_front_hand03_02]
25 71.020905 -0.000060 0.000060 0.000334 -0.002323 -106.379684 71.020905
26 71.020905 -0.000060 0.000060 0.000334 -0.002323 -106.379684 71.020905
[R_forearm]
25 322.776428 -0.000060 0.000030 0.208559 0.025833 -97.771713 322.776428
26 322.776428 -0.000060 0.000030 0.211272 0.033191 -99.739510 322.776428
[R_front_hand]
25 238.847015 -0.006795 2.210259 -2.635298 -10.645461 -26.312506 238.857239
26 238.847015 -0.006795 2.210259 -2.635298 -10.645461 -26.312506 238.857239
[R_weapon_bone]
25 155.664093 0.002503 -0.000030 0.003487 0.001180 -90.988930 155.664078
26 155.664093 0.002503 -0.000030 0.003487 0.001180 -90.988930 155.664078
[R_front_hand01_01]
25 87.624611 14.231146 22.918642 -154.633484 -59.950607 61.746033 91.683487
26 87.624611 14.231146 22.918642 -154.633499 -59.950619 61.746044 91.683487
[R_front_hand02_01]
25 89.356956 14.367283 -19.491137 154.602661 58.302849 63.744389 92.579636
26 89.356956 14.367283 -19.491137 154.602661 58.302849 63.744389 92.579636
[R_front_hand03_01]
25 87.286232 -22.307278 -0.143439 0.162155 -0.423168 -75.767921 90.091743
26 87.286232 -22.307278 -0.143439 0.162155 -0.423168 -75.767921 90.091743
[R_front_hand01_02]
25 71.020905 0.000060 0.000119 0.002323 -0.000334 106.381714 71.020905
26 71.020905 0.000060 0.000119 0.002323 -0.000334 106.381706 71.020905
[R_front_hand02_02]
25 71.020844 -0.000030 -0.000119 0.002323 -0.000334 106.381714 71.020836
26 71.020844 -0.000030 -0.000119 0.002323 -0.000334 106.381706 71.020836
[R_front_hand03_02]
25 71.020905 0.000000 0.000030 0.002323 -0.000334 106.381714 71.020905
26 71.020905 0.000000 0.000030 0.002323 -0.000334 106.381706 71.020905
[null_rope01_connect]
25 328.732483 0.000000 -0.000238 -135.723175 -57.271072 -162.210434 328.732483
26 328.732483 0.000000 -0.000238 -135.600342 -58.367020 -153.494888 328.732483
[Rope1_Seg01]
25 -0.000038 -0.000114 0.000111 104.718178 -17.199375 179.093445 0.000164
26 -0.000038 -0.000114 0.000112 89.459801 -24.587654 -159.987976 0.000164
[Rope1_Seg02]
25 139.999863 -0.000179 0.000000 6.146630 3.403608 -22.357141 139.999863
26 139.999863 -0.000179 0.000000 2.502777 11.174644 -20.039240 139.999863
[Rope1_Seg03]
25 139.999924 0.000060 -0.000060 14.286522 -3.766474 -17.872202 139.999924
26 139.999924 0.000060 -0.000060 16.536720 3.040726 -17.067102 139.999924
[Rope1_Seg04]
25 139.999924 -0.000060 -0.000119 -0.490932 -12.717731 12.501773 139.999924
26 139.999924 -0.000060 -0.000119 5.435523 -13.615566 7.731733 139.999924
[Rope1_Seg05]
25 139.999832 0.000119 -0.000060 0.467087 -4.628722 3.185693 139.999832
26 139.999832 0.000119 -0.000060 1.916304 -4.425102 1.952291 139.999832
[Rope1_Seg06]
25 139.999954 0.000119 -0.000060 0.220857 -2.509646 1.738184 139.999954
26 139.999954 0.000119 -0.000060 0.850475 -2.281821 1.097766 139.999954
[Rope1_Seg07]
25 139.999985 0.000060 0.000000 0.072382 -0.755374 0.525438 139.999985
26 139.999985 0.000060 0.000000 0.222575 -0.617164 0.307100 139.999985
[Rope1_Seg09]
25 121.602913 0.000119 -0.000089 -89.793175 -1.359789 0.847147 121.602913
26 121.602913 0.000119 -0.000089 -89.793175 -1.359789 0.847147 121.602913
[L_mid_hand01]
25 103.859421 1.038730 8.195221 130.544373 -67.584534 -38.866943 104.187431
26 103.859421 1.038730 8.195221 130.544373 -67.584534 -38.866943 104.187431
[L_mid_hand02]
25 105.572853 -4.139662 -10.864139 -168.923172 43.409309 -73.498886 106.211075
26 105.572853 -4.139662 -10.864139 -168.923172 43.409309 -73.498894 106.211075
[L_mid_hand03]
25 104.641464 17.579376 -3.913581 -6.012627 17.808174 74.893669 106.179977
26 104.641464 17.579376 -3.913581 -6.012625 17.808172 74.893669 106.179977
[null_rope02_connect]
25 328.732849 0.000179 -0.000119 -119.537735 50.599270 2.240197 328.732849
26 328.732849 0.000179 -0.000119 -117.433899 54.459976 -2.701691 328.732849
[Rope2_Seg01]
25 0.000082 0.000112 0.000000 -53.362873 29.148489 37.858482 0.000138
26 0.000088 0.000112 0.000000 -56.286171 20.768461 18.187307 0.000143
[Rope2_Seg02]
25 139.999741 -0.000060 -0.000119 -0.766626 -10.378073 5.998032 139.999756
26 139.999741 -0.000060 -0.000119 123.173309 57.854710 -64.698364 139.999756
[Rope2_Seg03]
25 140.000107 0.000030 0.000000 59.060585 57.239956 177.679047 140.000107
26 140.000107 0.000030 0.000000 11.153790 -33.462414 2.268729 140.000107
[Rope2_Seg04]
25 139.999802 0.000000 -0.000060 -10.061133 0.373247 12.624985 139.999802
26 139.999802 0.000000 -0.000060 0.138832 -0.849244 0.178671 139.999802
[Rope2_Seg05]
25 139.999985 -0.000060 0.000119 -0.365266 -0.199395 0.541377 139.999985
26 139.999985 -0.000060 0.000119 0.040779 -0.492955 0.105342 139.999985
[Rope2_Seg06]
25 139.999893 -0.000030 -0.000119 -0.250933 -0.126209 0.328350 139.999893
26 139.999893 -0.000030 -0.000119 0.001455 -0.334651 0.070891 139.999893
[Rope2_Seg07]
25 139.999893 0.000060 -0.000060 -0.181481 -0.082082 0.214454 139.999893
26 139.999893 0.000060 -0.000060 -0.018222 -0.230780 0.051153 139.999893
[Rope2_Seg09]
25 121.338966 0.000089 -0.000060 33.793236 -1.359788 -0.847141 121.338966
26 121.338966 0.000089 -0.000060 33.793236 -1.359788 -0.847141 121.338966
[R_mid_hand01]
25 104.680779 11.144459 -10.335981 -16.212063 45.237247 70.462852 105.778534
26 104.680779 11.144459 -10.335981 -16.212063 45.237247 70.462852 105.778534
[R_mid_hand02]
25 104.070427 2.443552 8.231699 49.067368 -67.749771 39.286453 104.424065
26 104.070427 2.443552 8.231699 49.067368 -67.749771 39.286453 104.424065
[R_mid_hand03]
25 106.028137 -11.221827 -5.996406 -177.101105 15.551026 -76.585571 106.788818
26 106.028137 -11.221827 -5.996406 -177.101105 15.551026 -76.585571 106.788818
[spine02]
25 129.756927 0.001550 0.000119 -0.681756 -4.004638 1.851657 129.756927
26 129.756927 0.001550 0.000119 -0.488772 -4.029278 -0.970936 129.756927
[spine03]
25 78.613991 0.082029 -4.898968 1.258314 4.085575 7.277089 78.766525
26 78.613998 0.081950 -4.898974 1.383906 4.045946 9.037498 78.766533
[pelvis]
25 169.435242 0.051022 0.000000 -0.000683 -0.191401 -4.519845 169.435257
26 169.435242 0.051022 0.000000 -0.011569 -0.191329 -0.962713 169.435257
[null_rope03_connect]
25 -1.257226 -2.466202 137.391083 179.563110 -88.786949 -81.543221 137.418976
26 -1.257226 -2.466202 137.391083 178.861862 -88.230209 -84.162476 137.418976
[null_rope04_connect]
25 -1.259640 -2.480268 -137.844437 179.563110 -88.786949 -81.543221 137.872513
26 -1.259640 -2.480268 -137.844437 178.861862 -88.230209 -84.162476 137.872513
[Rope3_Seg01]
25 -0.000024 0.000025 0.000053 -129.946869 -9.894172 -83.050240 0.000063
26 -0.000025 0.000028 0.000042 -130.404938 -0.757246 -85.222878 0.000056
[Rope3_Seg02]
25 139.999924 -0.000119 0.000060 -4.465767 3.535445 -30.995918 139.999924
26 139.999924 -0.000119 0.000060 0.256997 0.030880 -12.968789 139.999924
[Rope3_Seg03]
25 139.999924 -0.000119 0.000119 -70.997932 12.758351 -76.828484 139.999924
26 139.999924 -0.000119 0.000119 -43.384548 4.492280 -75.464302 139.999924
[Rope3_Seg04]
25 139.999924 0.000119 0.000000 -68.751747 48.490082 -52.288754 139.999924
26 139.999924 0.000119 0.000000 -118.841988 -22.201832 -146.834396 139.999924
[Rope3_Seg05]
25 139.999924 -0.000238 0.000060 3.098554 48.842819 8.199190 139.999924
26 139.999924 -0.000238 0.000060 3.873145 14.161637 11.570495 139.999924
[Rope3_Seg06]
25 139.999893 -0.000119 -0.000060 2.287760 7.297946 1.262858 139.999893
26 139.999893 -0.000119 -0.000060 0.501002 0.690609 0.791096 139.999893
[Rope3_Seg07]
25 139.999771 0.000060 -0.000119 1.225251 2.392264 0.319114 139.999771
26 139.999771 0.000060 -0.000119 0.501177 -0.027897 -0.028134 139.999771
[Rope3_Seg08]
25 139.999985 -0.000060 0.000000 0.590226 0.174669 0.017395 139.999985
26 139.999985 -0.000060 0.000000 0.535796 0.001652 0.001667 139.999985
[Rope3_Seg09]
25 90.185997 -0.000179 -0.000060 89.793228 -1.359877 -0.847183 90.185997
26 90.185997 -0.000179 -0.000060 89.793228 -1.359877 -0.847183 90.185997
[R_rear_hand01]
25 103.366196 -6.073594 -10.757982 -177.714203 24.565960 -73.910950 104.101845
26 103.366196 -6.073594 -10.757982 -177.714203 24.565960 -73.910950 104.101845
[R_rear_hand02]
25 100.509819 12.039542 -7.992327 -12.874829 36.868488 72.167213 101.543350
26 100.509819 12.039542 -7.992327 -12.874829 36.868488 72.167213 101.543350
[R_rear_hand03]
25 101.539970 5.215704 5.435467 71.484581 -71.816628 21.513813 101.819031
26 101.539970 5.215704 5.435467 71.484581 -71.816628 21.513813 101.819031
[Rope4_Seg01]
25 0.000011 -0.000038 -0.000232 58.887501 -25.511490 -124.047096 0.000235
26 0.000011 -0.000038 -0.000216 52.965694 -13.471394 -122.027534 0.000219
[Rope4_Seg02]
25 139.999985 0.000060 0.000119 -6.078663 25.391176 -7.092349 139.999985
26 139.999985 0.000060 0.000119 -1.424673 19.277096 1.054132 139.999985
[Rope4_Seg03]
25 139.999924 0.000000 -0.000238 4.222575 35.551300 4.958051 139.999924
26 139.999924 0.000000 -0.000238 3.211761 28.223104 9.290610 139.999924
[Rope4_Seg04]
25 139.999985 0.000000 0.000119 5.624750 9.113811 -6.413564 139.999985
26 139.999985 0.000000 0.000119 3.660777 16.877449 3.151493 139.999985
[Rope4_Seg05]
25 139.999802 -0.000060 -0.000119 9.061227 -23.285789 -25.599478 139.999802
26 139.999802 -0.000060 -0.000119 10.758869 -18.549200 -24.999479 139.999802
[Rope4_Seg06]
25 139.999924 0.000000 0.000060 1.126588 -15.413104 -13.708014 139.999924
26 139.999924 0.000000 0.000060 3.267998 -19.270525 -17.958839 139.999924
[Rope4_Seg07]
25 139.999802 0.000000 0.000000 -0.758181 -5.146193 -5.476622 139.999802
26 139.999802 0.000000 0.000000 -0.448388 -5.689856 -6.005215 139.999802
[Rope4_Seg08]
25 139.999924 0.000000 0.000119 -2.195157 -2.697762 -2.965251 139.999924
26 139.999924 0.000000 0.000119 -2.040237 -2.940050 -3.172564 139.999924
[Rope4_Seg09]
25 90.185791 0.000060 0.000060 -135.617828 2.228885 0.850567 90.185791
26 90.185791 0.000060 0.000060 -135.617828 2.228885 0.850567 90.185791
[L_rear_hand01]
25 101.696655 -8.392275 -7.654577 -12.874829 -36.868488 107.832764 102.329041
26 101.696655 -8.392275 -7.654577 -12.874829 -36.868488 107.832764 102.329041
[L_rear_hand02]
25 102.726799 -1.568258 5.773216 71.484581 71.816628 158.486160 102.900848
26 102.726799 -1.568258 5.773216 71.484581 71.816628 158.486160 102.900848
[L_rear_hand03]
25 104.552910 9.721220 -10.420293 -177.714203 -24.565960 -106.089035 105.519653
26 104.552910 9.721220 -10.420293 -177.714203 -24.565960 -106.089035 105.519653
